STARTFONT 2.1
FONT -Monotype-Nimrod-Regular-R-Normal--19-140-100-100-P-105-iso8859-5
SIZE 14 100 100
FONTBOUNDINGBOX 22 23 -1 -5

STARTPROPERTIES 24
FOUNDRY "Monotype"
FAMILY_NAME "Nimrod"
WEIGHT_NAME "Regular"
SLANT "R"
SETWIDTH_NAME "Normal"
ADD_STYLE_NAME ""
PIXEL_SIZE 19
POINT_SIZE 140
RESOLUTION_X 100
RESOLUTION_Y 100
SPACING "P"
AVERAGE_WIDTH 105
CHARSET_REGISTRY "iso8859"
CHARSET_ENCODING "5"
FACE_NAME "Nimrod ISO Latin Cyrillic"
_DEC_DEVICE_FONTNAMES "PS=nimrod-latcyrillic"
COPYRIGHT "Copyright (c) 1994 Monotype Typography Ltd."
CAP_HEIGHT 16
X_HEIGHT 12
WEIGHT 10
QUAD_WIDTH 13
DEFAULT_CHAR 160
FONT_DESCENT 5
FONT_ASCENT 18
ENDPROPERTIES

CHARS 191

STARTCHAR space
ENCODING 32
SWIDTH 250 0
DWIDTH 5 0
BBX 0 0 0 0
BITMAP
ENDCHAR

STARTCHAR exclam
ENCODING 33
SWIDTH 281 0
DWIDTH 5 0
BBX 2 14 2 0
BITMAP
C0
C0
C0
C0
C0
C0
C0
C0
40
40
00
00
C0
C0
ENDCHAR

STARTCHAR quotedbl
ENCODING 34
SWIDTH 406 0
DWIDTH 8 0
BBX 5 6 2 8
BITMAP
D8
D8
D8
D8
48
48
ENDCHAR

STARTCHAR numbersign
ENCODING 35
SWIDTH 667 0
DWIDTH 13 0
BBX 12 14 1 0
BITMAP
0840
0840
0840
0840
7FF0
1080
1080
1080
1080
FFE0
2100
2100
2100
2100
ENDCHAR

STARTCHAR dollar
ENCODING 36
SWIDTH 500 0
DWIDTH 10 0
BBX 8 16 1 -2
BITMAP
08
3E
6B
C9
C8
E8
78
3C
1E
17
93
D3
56
3C
10
10
ENDCHAR

STARTCHAR percent
ENCODING 37
SWIDTH 1000 0
DWIDTH 19 0
BBX 14 14 3 0
BITMAP
3020
4820
CC40
CC40
CC80
4880
3100
0230
0248
04CC
04CC
08CC
0848
1030
ENDCHAR

STARTCHAR ampersand
ENCODING 38
SWIDTH 781 0
DWIDTH 15 0
BBX 14 14 1 0
BITMAP
0700
0980
1980
1980
1900
0E00
3C3C
6618
C310
C320
C1C0
C0C4
616C
3E38
ENDCHAR

STARTCHAR quoteright
ENCODING 39
SWIDTH 281 0
DWIDTH 5 0
BBX 3 4 1 10
BITMAP
60
60
20
C0
ENDCHAR

STARTCHAR parenleft
ENCODING 40
SWIDTH 354 0
DWIDTH 7 0
BBX 6 18 1 -4
BITMAP
04
08
10
30
60
60
C0
C0
C0
C0
C0
C0
60
60
30
10
08
04
ENDCHAR

STARTCHAR parenright
ENCODING 41
SWIDTH 354 0
DWIDTH 7 0
BBX 6 18 1 -4
BITMAP
80
40
20
30
18
18
0C
0C
0C
0C
0C
0C
18
18
30
20
40
80
ENDCHAR

STARTCHAR asterisk
ENCODING 42
SWIDTH 469 0
DWIDTH 9 0
BBX 8 7 1 7
BITMAP
18
18
CB
7E
18
3C
66
ENDCHAR

STARTCHAR plus
ENCODING 43
SWIDTH 667 0
DWIDTH 13 0
BBX 9 9 2 2
BITMAP
0800
0800
0800
0800
FF80
0800
0800
0800
0800
ENDCHAR

STARTCHAR comma
ENCODING 44
SWIDTH 281 0
DWIDTH 5 0
BBX 3 4 1 -2
BITMAP
60
60
20
C0
ENDCHAR

STARTCHAR minus
ENCODING 45
SWIDTH 667 0
DWIDTH 13 0
BBX 10 1 2 6
BITMAP
FFC0
ENDCHAR

STARTCHAR period
ENCODING 46
SWIDTH 281 0
DWIDTH 5 0
BBX 2 2 2 0
BITMAP
C0
C0
ENDCHAR

STARTCHAR slash
ENCODING 47
SWIDTH 510 0
DWIDTH 10 0
BBX 7 14 2 0
BITMAP
02
02
06
04
0C
08
18
10
30
20
60
40
C0
80
ENDCHAR

STARTCHAR zero
ENCODING 48
SWIDTH 500 0
DWIDTH 10 0
BBX 8 14 1 0
BITMAP
3C
66
C3
C3
C3
C3
C3
C3
C3
C3
C3
C3
66
3C
ENDCHAR

STARTCHAR one
ENCODING 49
SWIDTH 500 0
DWIDTH 10 0
BBX 6 14 2 0
BITMAP
10
F0
30
30
30
30
30
30
30
30
30
30
30
FC
ENDCHAR

STARTCHAR two
ENCODING 50
SWIDTH 500 0
DWIDTH 10 0
BBX 8 14 1 0
BITMAP
3C
46
83
C3
63
06
06
0C
08
10
21
41
FF
FE
ENDCHAR

STARTCHAR three
ENCODING 51
SWIDTH 500 0
DWIDTH 10 0
BBX 8 14 1 0
BITMAP
3C
46
63
23
03
06
3C
06
03
03
43
C3
86
7C
ENDCHAR

STARTCHAR four
ENCODING 52
SWIDTH 500 0
DWIDTH 10 0
BBX 9 14 1 0
BITMAP
0600
0E00
0E00
1600
1600
2600
2600
4600
4600
FF80
0600
0600
0600
1F80
ENDCHAR

STARTCHAR five
ENCODING 53
SWIDTH 500 0
DWIDTH 10 0
BBX 9 14 1 0
BITMAP
3F80
3F00
2000
2000
4000
7C00
4700
0300
0180
4180
C180
8300
4700
3C00
ENDCHAR

STARTCHAR six
ENCODING 54
SWIDTH 500 0
DWIDTH 10 0
BBX 9 14 1 0
BITMAP
1E00
2300
6100
6000
C000
C000
DE00
E300
C180
C180
C180
C180
6300
3E00
ENDCHAR

STARTCHAR seven
ENCODING 55
SWIDTH 500 0
DWIDTH 10 0
BBX 8 14 1 0
BITMAP
7F
7F
C3
82
06
06
06
0C
0C
0C
0C
18
18
18
ENDCHAR

STARTCHAR eight
ENCODING 56
SWIDTH 500 0
DWIDTH 10 0
BBX 8 14 1 0
BITMAP
3C
66
C3
C3
C3
66
3C
66
C3
C3
C3
C3
66
3C
ENDCHAR

STARTCHAR nine
ENCODING 57
SWIDTH 500 0
DWIDTH 10 0
BBX 9 14 1 0
BITMAP
3E00
6300
C180
C180
C180
C180
6380
3D80
0180
0180
0300
4300
6200
3C00
ENDCHAR

STARTCHAR colon
ENCODING 58
SWIDTH 281 0
DWIDTH 5 0
BBX 2 10 2 0
BITMAP
C0
C0
00
00
00
00
00
00
C0
C0
ENDCHAR

STARTCHAR semicolon
ENCODING 59
SWIDTH 281 0
DWIDTH 5 0
BBX 3 12 1 -2
BITMAP
60
60
00
00
00
00
00
00
60
60
20
C0
ENDCHAR

STARTCHAR less
ENCODING 60
SWIDTH 667 0
DWIDTH 13 0
BBX 10 9 2 2
BITMAP
0040
01C0
0E00
3000
C000
3000
0E00
01C0
0040
ENDCHAR

STARTCHAR equal
ENCODING 61
SWIDTH 667 0
DWIDTH 13 0
BBX 10 5 2 4
BITMAP
FFC0
0000
0000
0000
FFC0
ENDCHAR

STARTCHAR greater
ENCODING 62
SWIDTH 667 0
DWIDTH 13 0
BBX 10 9 2 2
BITMAP
8000
E000
1C00
0300
00C0
0300
1C00
E000
8000
ENDCHAR

STARTCHAR question
ENCODING 63
SWIDTH 448 0
DWIDTH 9 0
BBX 7 14 1 0
BITMAP
78
8C
C6
46
06
0C
18
10
10
00
00
00
30
30
ENDCHAR

STARTCHAR at
ENCODING 64
SWIDTH 917 0
DWIDTH 17 0
BBX 16 18 1 -4
BITMAP
03E0
0C18
1004
2002
41B2
4271
8631
8431
8C61
8C62
8CE2
8D6C
4630
4001
2002
1004
0C18
03E0
ENDCHAR

STARTCHAR A
ENCODING 65
SWIDTH 802 0
DWIDTH 15 0
BBX 15 14 0 0
BITMAP
0100
0180
0180
02C0
02C0
0460
0460
0860
0830
1FF0
1030
2018
6018
F87E
ENDCHAR

STARTCHAR B
ENCODING 66
SWIDTH 729 0
DWIDTH 14 0
BBX 12 14 1 0
BITMAP
FF80
30C0
3060
3060
3060
30C0
3FC0
3060
3030
3030
3030
3030
3060
FFC0
ENDCHAR

STARTCHAR C
ENCODING 67
SWIDTH 719 0
DWIDTH 14 0
BBX 11 14 2 0
BITMAP
0FC0
30E0
6060
6020
C020
C000
C000
C000
C000
C020
6020
6040
30C0
0F00
ENDCHAR

STARTCHAR D
ENCODING 68
SWIDTH 771 0
DWIDTH 15 0
BBX 13 14 1 0
BITMAP
FF80
3060
3030
3030
3018
3018
3018
3018
3018
3018
3030
3030
3060
FF80
ENDCHAR

STARTCHAR E
ENCODING 69
SWIDTH 719 0
DWIDTH 14 0
BBX 12 14 1 0
BITMAP
FFE0
3070
3030
3010
3090
3080
3F80
3080
3080
3010
3010
3030
3070
FFE0
ENDCHAR

STARTCHAR F
ENCODING 70
SWIDTH 667 0
DWIDTH 13 0
BBX 12 14 1 0
BITMAP
FFE0
3070
3030
3010
3090
3080
3F80
3080
3080
3000
3000
3000
3000
FC00
ENDCHAR

STARTCHAR G
ENCODING 71
SWIDTH 792 0
DWIDTH 15 0
BBX 14 14 1 0
BITMAP
0FE0
3070
6030
6010
C010
C000
C000
C0FC
C030
C030
6030
6030
3060
0F80
ENDCHAR

STARTCHAR H
ENCODING 72
SWIDTH 813 0
DWIDTH 15 0
BBX 14 14 1 0
BITMAP
FCFC
3030
3030
3030
3030
3030
3FF0
3030
3030
3030
3030
3030
3030
FCFC
ENDCHAR

STARTCHAR I
ENCODING 73
SWIDTH 385 0
DWIDTH 7 0
BBX 6 14 1 0
BITMAP
FC
30
30
30
30
30
30
30
30
30
30
30
30
FC
ENDCHAR

STARTCHAR J
ENCODING 74
SWIDTH 573 0
DWIDTH 11 0
BBX 10 14 1 0
BITMAP
0FC0
0300
0300
0300
0300
0300
0300
0300
0300
6300
E300
C200
4600
3C00
ENDCHAR

STARTCHAR K
ENCODING 75
SWIDTH 781 0
DWIDTH 15 0
BBX 14 14 1 0
BITMAP
FCFC
3030
3020
3040
3080
3100
3380
3580
38C0
30C0
3060
3060
3030
FCFC
ENDCHAR

STARTCHAR L
ENCODING 76
SWIDTH 677 0
DWIDTH 13 0
BBX 12 14 1 0
BITMAP
FC00
3000
3000
3000
3000
3000
3000
3000
3000
3000
3010
3030
3070
FFE0
ENDCHAR

STARTCHAR M
ENCODING 77
SWIDTH 979 0
DWIDTH 19 0
BBX 18 14 1 0
BITMAP
F807C0
380700
2C0B00
2C0B00
260B00
261300
261300
231300
232300
232300
21A300
21C300
20C300
F8CFC0
ENDCHAR

STARTCHAR N
ENCODING 78
SWIDTH 823 0
DWIDTH 16 0
BBX 15 14 1 0
BITMAP
F83E
3808
2C08
2E08
2608
2308
2388
2188
20C8
20E8
2068
2038
2038
F818
ENDCHAR

STARTCHAR O
ENCODING 79
SWIDTH 792 0
DWIDTH 15 0
BBX 13 14 1 0
BITMAP
0F80
3060
6030
6030
C018
C018
C018
C018
C018
C018
6030
6030
3060
0F80
ENDCHAR

STARTCHAR P
ENCODING 80
SWIDTH 667 0
DWIDTH 13 0
BBX 12 14 1 0
BITMAP
FF80
3060
3030
3030
3030
3030
3060
3F80
3000
3000
3000
3000
3000
FE00
ENDCHAR

STARTCHAR Q
ENCODING 81
SWIDTH 792 0
DWIDTH 15 0
BBX 15 16 1 -2
BITMAP
0F80
3060
6030
6030
C018
C018
C018
C018
CE18
D118
61B0
60B0
30E0
0FC0
0060
003E
ENDCHAR

STARTCHAR R
ENCODING 82
SWIDTH 729 0
DWIDTH 14 0
BBX 12 14 1 0
BITMAP
FF00
30C0
3060
3060
3060
3060
30C0
3F00
3180
3180
30C0
30C0
3060
FC70
ENDCHAR

STARTCHAR S
ENCODING 83
SWIDTH 615 0
DWIDTH 12 0
BBX 9 14 2 0
BITMAP
3F00
6380
C180
C080
E080
7000
3C00
0F00
0380
8180
8180
C180
E300
7E00
ENDCHAR

STARTCHAR T
ENCODING 84
SWIDTH 698 0
DWIDTH 13 0
BBX 12 14 1 0
BITMAP
7FE0
E670
C630
8610
0600
0600
0600
0600
0600
0600
0600
0600
0600
1F80
ENDCHAR

STARTCHAR U
ENCODING 85
SWIDTH 771 0
DWIDTH 15 0
BBX 14 14 1 0
BITMAP
FC7C
3010
3010
3010
3010
3010
3010
3010
3010
3010
3010
3010
1820
0FC0
ENDCHAR

STARTCHAR V
ENCODING 86
SWIDTH 792 0
DWIDTH 15 0
BBX 14 14 0 0
BITMAP
FC7C
3010
3010
1810
1820
1820
0C20
0C40
0640
0640
0680
0380
0300
0100
ENDCHAR

STARTCHAR W
ENCODING 87
SWIDTH 1010 0
DWIDTH 19 0
BBX 19 14 0 0
BITMAP
F9F9E0
306080
306080
306080
187100
18B100
18B100
0C9900
0D1A00
0D1A00
070E00
070C00
060C00
020800
ENDCHAR

STARTCHAR X
ENCODING 88
SWIDTH 729 0
DWIDTH 14 0
BBX 14 14 0 0
BITMAP
F8FC
6030
3020
1840
0C80
0680
0300
0300
0580
04C0
0860
1030
3018
FC7C
ENDCHAR

STARTCHAR Y
ENCODING 89
SWIDTH 729 0
DWIDTH 14 0
BBX 14 14 0 0
BITMAP
FC7C
3830
1820
0C40
0C40
0680
0680
0300
0300
0300
0300
0300
0300
0FC0
ENDCHAR

STARTCHAR Z
ENCODING 90
SWIDTH 625 0
DWIDTH 12 0
BBX 10 14 1 0
BITMAP
7FC0
E0C0
C180
8300
8300
0600
0C00
0C00
1800
3040
3040
60C0
C1C0
FF80
ENDCHAR

STARTCHAR bracketleft
ENCODING 91
SWIDTH 344 0
DWIDTH 7 0
BBX 4 18 2 -4
BITMAP
F0
C0
C0
C0
C0
C0
C0
C0
C0
C0
C0
C0
C0
C0
C0
C0
C0
F0
ENDCHAR

STARTCHAR backslash
ENCODING 92
SWIDTH 510 0
DWIDTH 10 0
BBX 8 14 1 0
BITMAP
C0
40
60
20
30
10
18
08
0C
04
06
02
03
01
ENDCHAR

STARTCHAR bracketright
ENCODING 93
SWIDTH 344 0
DWIDTH 7 0
BBX 4 18 1 -4
BITMAP
F0
30
30
30
30
30
30
30
30
30
30
30
30
30
30
30
30
F0
ENDCHAR

STARTCHAR asciicircum
ENCODING 94
SWIDTH 469 0
DWIDTH 9 0
BBX 7 7 1 7
BITMAP
10
38
28
44
C6
82
82
ENDCHAR

STARTCHAR underscore
ENCODING 95
SWIDTH 500 0
DWIDTH 10 0
BBX 10 1 0 -4
BITMAP
FFC0
ENDCHAR

STARTCHAR quoteleft
ENCODING 96
SWIDTH 281 0
DWIDTH 5 0
BBX 3 4 1 10
BITMAP
60
80
C0
C0
ENDCHAR

STARTCHAR a
ENCODING 97
SWIDTH 563 0
DWIDTH 11 0
BBX 10 10 1 0
BITMAP
3E00
6300
4300
0300
1F00
6300
C300
C300
C700
79C0
ENDCHAR

STARTCHAR b
ENCODING 98
SWIDTH 594 0
DWIDTH 11 0
BBX 11 14 0 0
BITMAP
F000
3000
3000
3000
3700
39C0
30C0
3060
3060
3060
3060
30C0
39C0
2700
ENDCHAR

STARTCHAR c
ENCODING 99
SWIDTH 510 0
DWIDTH 9 0
BBX 8 10 1 0
BITMAP
1E
73
61
C0
C0
C0
C0
61
73
1E
ENDCHAR

STARTCHAR d
ENCODING 100
SWIDTH 594 0
DWIDTH 12 0
BBX 11 14 1 0
BITMAP
0780
0180
0180
0180
1D80
7380
6180
C180
C180
C180
C180
6180
7380
1DE0
ENDCHAR

STARTCHAR e
ENCODING 101
SWIDTH 521 0
DWIDTH 10 0
BBX 9 10 1 0
BITMAP
1E00
7300
6180
C180
FF80
C000
C000
6080
7180
1F00
ENDCHAR

STARTCHAR f
ENCODING 102
SWIDTH 344 0
DWIDTH 7 0
BBX 8 14 0 0
BITMAP
0E
13
31
30
FC
30
30
30
30
30
30
30
30
FC
ENDCHAR

STARTCHAR g
ENCODING 103
SWIDTH 552 0
DWIDTH 10 0
BBX 9 13 1 -3
BITMAP
3D80
6700
C300
C300
C300
6600
7C00
8000
FE00
7F00
C180
C180
7F00
ENDCHAR

STARTCHAR h
ENCODING 104
SWIDTH 646 0
DWIDTH 12 0
BBX 12 14 0 0
BITMAP
F000
3000
3000
3000
3780
39C0
30C0
30C0
30C0
30C0
30C0
30C0
30C0
F9F0
ENDCHAR

STARTCHAR i
ENCODING 105
SWIDTH 365 0
DWIDTH 7 0
BBX 6 14 1 0
BITMAP
30
30
00
00
F0
30
30
30
30
30
30
30
30
FC
ENDCHAR

STARTCHAR j
ENCODING 106
SWIDTH 323 0
DWIDTH 6 0
BBX 5 17 -1 -3
BITMAP
18
18
00
00
78
18
18
18
18
18
18
18
18
18
98
D0
60
ENDCHAR

STARTCHAR k
ENCODING 107
SWIDTH 625 0
DWIDTH 12 0
BBX 11 14 0 0
BITMAP
F000
3000
3000
3000
37E0
3180
3100
3200
3700
3B00
3180
3180
30C0
FDE0
ENDCHAR

STARTCHAR l
ENCODING 108
SWIDTH 333 0
DWIDTH 6 0
BBX 6 14 0 0
BITMAP
F0
30
30
30
30
30
30
30
30
30
30
30
30
FC
ENDCHAR

STARTCHAR m
ENCODING 109
SWIDTH 938 0
DWIDTH 18 0
BBX 18 10 0 0
BITMAP
F79E00
39E700
30C300
30C300
30C300
30C300
30C300
30C300
30C300
FDEFC0
ENDCHAR

STARTCHAR n
ENCODING 110
SWIDTH 646 0
DWIDTH 12 0
BBX 12 10 0 0
BITMAP
F780
39C0
30C0
30C0
30C0
30C0
30C0
30C0
30C0
F9F0
ENDCHAR

STARTCHAR o
ENCODING 111
SWIDTH 562 0
DWIDTH 11 0
BBX 10 10 1 0
BITMAP
1E00
7380
6180
C0C0
C0C0
C0C0
C0C0
6180
7380
1E00
ENDCHAR

STARTCHAR p
ENCODING 112
SWIDTH 594 0
DWIDTH 11 0
BBX 11 13 0 -3
BITMAP
F700
39C0
30C0
3060
3060
3060
3060
30C0
39C0
3700
3000
3000
FC00
ENDCHAR

STARTCHAR q
ENCODING 113
SWIDTH 594 0
DWIDTH 11 0
BBX 11 13 1 -3
BITMAP
1E80
7380
6180
C180
C180
C180
C180
6180
7380
1D80
0180
0180
07E0
ENDCHAR

STARTCHAR r
ENCODING 114
SWIDTH 490 0
DWIDTH 9 0
BBX 9 10 1 0
BITMAP
F700
3980
3080
3000
3000
3000
3000
3000
3000
FC00
ENDCHAR

STARTCHAR s
ENCODING 115
SWIDTH 479 0
DWIDTH 9 0
BBX 7 10 1 0
BITMAP
7C
C6
C2
E0
78
3C
0E
86
C6
7C
ENDCHAR

STARTCHAR t
ENCODING 116
SWIDTH 375 0
DWIDTH 7 0
BBX 7 14 0 0
BITMAP
10
10
10
30
FE
30
30
30
30
30
30
30
32
1C
ENDCHAR

STARTCHAR u
ENCODING 117
SWIDTH 646 0
DWIDTH 12 0
BBX 12 10 0 0
BITMAP
F3C0
30C0
30C0
30C0
30C0
30C0
30C0
30C0
39C0
1EF0
ENDCHAR

STARTCHAR v
ENCODING 118
SWIDTH 594 0
DWIDTH 11 0
BBX 11 10 0 0
BITMAP
F9E0
3080
3080
1880
1900
1900
0D00
0D00
0600
0600
ENDCHAR

STARTCHAR w
ENCODING 119
SWIDTH 833 0
DWIDTH 16 0
BBX 16 10 0 0
BITMAP
FBDF
318C
3188
3188
1AC8
1AD0
1AD0
1AD0
0C60
0C60
ENDCHAR

STARTCHAR x
ENCODING 120
SWIDTH 583 0
DWIDTH 11 0
BBX 10 10 1 0
BITMAP
F3C0
6180
3100
1A00
0C00
0C00
1600
2300
6180
F3C0
ENDCHAR

STARTCHAR y
ENCODING 121
SWIDTH 594 0
DWIDTH 11 0
BBX 11 13 0 -3
BITMAP
F9E0
30C0
3080
1880
1880
1900
0D00
0D00
0600
0600
4400
6C00
3800
ENDCHAR

STARTCHAR z
ENCODING 122
SWIDTH 479 0
DWIDTH 9 0
BBX 7 10 1 0
BITMAP
FE
C6
8C
18
18
30
30
62
C6
FE
ENDCHAR

STARTCHAR braceleft
ENCODING 123
SWIDTH 479 0
DWIDTH 9 0
BBX 4 18 3 -4
BITMAP
10
20
20
60
60
60
20
20
C0
C0
20
20
60
60
60
20
20
10
ENDCHAR

STARTCHAR bar
ENCODING 124
SWIDTH 510 0
DWIDTH 10 0
BBX 2 14 4 0
BITMAP
C0
C0
C0
C0
C0
C0
C0
C0
C0
C0
C0
C0
C0
C0
ENDCHAR

STARTCHAR braceright
ENCODING 125
SWIDTH 479 0
DWIDTH 9 0
BBX 4 18 3 -4
BITMAP
80
40
40
60
60
60
40
40
30
30
40
40
60
60
60
40
40
80
ENDCHAR

STARTCHAR asciitilde
ENCODING 126
SWIDTH 667 0
DWIDTH 13 0
BBX 10 3 2 5
BITMAP
7840
9E40
8780
ENDCHAR

STARTCHAR space
ENCODING 160
SWIDTH 250 0
DWIDTH 6 0
BBX 0 0 0 0
BITMAP
ENDCHAR

STARTCHAR afii10023
ENCODING 161
SWIDTH 698 0
DWIDTH 14 0
BBX 12 17 1 0
BITMAP
18C0
18C0
0000
FFE0
3070
3030
3010
3090
3080
3F80
3080
3080
3010
3010
3030
3070
FFE0
ENDCHAR

STARTCHAR afii10051
ENCODING 162
SWIDTH 875 0
DWIDTH 17 0
BBX 16 14 1 0
BITMAP
7FE0
E670
C630
8610
0600
06F8
078E
0706
0603
0603
0603
0603
0626
1F9C
ENDCHAR

STARTCHAR afii10052
ENCODING 163
SWIDTH 635 0
DWIDTH 12 0
BBX 11 18 1 0
BITMAP
0380
0600
0C00
0000
FFC0
30E0
3060
3020
3020
3000
3000
3000
3000
3000
3000
3000
3000
FC00
ENDCHAR

STARTCHAR afii10053
ENCODING 164
SWIDTH 698 0
DWIDTH 14 0
BBX 11 14 2 0
BITMAP
0FC0
30E0
6060
6020
C020
C000
FE00
C000
C000
C020
6020
6040
30C0
0F00
ENDCHAR

STARTCHAR afii10054
ENCODING 165
SWIDTH 594 0
DWIDTH 12 0
BBX 9 14 2 0
BITMAP
3F00
6380
C180
C080
E080
7000
3C00
0F00
0380
8180
8180
C180
E300
7E00
ENDCHAR

STARTCHAR afii10055
ENCODING 166
SWIDTH 385 0
DWIDTH 7 0
BBX 6 14 1 0
BITMAP
FC
30
30
30
30
30
30
30
30
30
30
30
30
FC
ENDCHAR

STARTCHAR afii10056
ENCODING 167
SWIDTH 385 0
DWIDTH 7 0
BBX 6 17 1 0
BITMAP
CC
CC
00
FC
30
30
30
30
30
30
30
30
30
30
30
30
FC
ENDCHAR

STARTCHAR afii10057
ENCODING 168
SWIDTH 573 0
DWIDTH 11 0
BBX 10 14 1 0
BITMAP
0FC0
0300
0300
0300
0300
0300
0300
0300
0300
6300
E300
C200
4600
3C00
ENDCHAR

STARTCHAR afii10058
ENCODING 169
SWIDTH 1092 0
DWIDTH 21 0
BBX 20 14 1 0
BITMAP
1FFE00
041800
041800
041800
041800
041800
041F80
041860
081830
081830
C81830
C81830
881860
707F80
ENDCHAR

STARTCHAR afii10059
ENCODING 170
SWIDTH 1089 0
DWIDTH 21 0
BBX 19 14 1 0
BITMAP
FCFC00
303000
303000
303000
303000
303000
3FFF00
3030C0
303060
303060
303060
303060
3030C0
FCFF00
ENDCHAR

STARTCHAR afii10060
ENCODING 171
SWIDTH 885 0
DWIDTH 17 0
BBX 16 14 1 0
BITMAP
7FE0
E670
C630
8610
0600
06F8
071C
060C
060C
060C
060C
060C
060C
1FBF
ENDCHAR

STARTCHAR afii10061
ENCODING 172
SWIDTH 759 0
DWIDTH 14 0
BBX 13 18 1 0
BITMAP
01C0
0300
0600
0000
FC30
3078
3058
3080
3080
3100
3300
3F80
30C0
30C0
3060
3060
3030
FC38
ENDCHAR

STARTCHAR hyphen
ENCODING 173
SWIDTH 281 0
DWIDTH 5 0
BBX 4 1 1 5
BITMAP
F0
ENDCHAR

STARTCHAR afii10062
ENCODING 174
SWIDTH 732 0
DWIDTH 14 0
BBX 14 18 0 0
BITMAP
0C60
0C60
07C0
0000
FC7C
3018
3010
1810
1820
0C20
0C40
0640
0680
3380
7300
6100
2200
1C00
ENDCHAR

STARTCHAR afii10145
ENCODING 175
SWIDTH 823 0
DWIDTH 16 0
BBX 15 17 1 -3
BITMAP
FC7E
3018
3018
3018
3018
3018
3018
3018
3018
3018
3018
3018
3018
FFFE
0380
0100
0100
ENDCHAR

STARTCHAR afii10017
ENCODING 176
SWIDTH 792 0
DWIDTH 15 0
BBX 15 14 0 0
BITMAP
0100
0180
0180
02C0
02C0
0460
0460
0860
0830
1FF0
1030
2018
6018
F87E
ENDCHAR

STARTCHAR afii10018
ENCODING 177
SWIDTH 701 0
DWIDTH 13 0
BBX 12 14 1 0
BITMAP
FFC0
30E0
3060
3020
3020
3000
3FC0
3060
3030
3030
3030
3030
3060
FFC0
ENDCHAR

STARTCHAR afii10019
ENCODING 178
SWIDTH 719 0
DWIDTH 14 0
BBX 12 14 1 0
BITMAP
FF80
30C0
3060
3060
3060
30C0
3FC0
3060
3030
3030
3030
3030
3060
FFC0
ENDCHAR

STARTCHAR afii10020
ENCODING 179
SWIDTH 635 0
DWIDTH 12 0
BBX 11 14 1 0
BITMAP
FFC0
30E0
3060
3020
3020
3000
3000
3000
3000
3000
3000
3000
3000
FC00
ENDCHAR

STARTCHAR afii10021
ENCODING 180
SWIDTH 760 0
DWIDTH 14 0
BBX 14 17 0 -3
BITMAP
1FFC
0630
0430
0430
0430
0430
0430
0830
0830
0830
1030
1030
6030
FFFC
C00C
8004
8004
ENDCHAR

STARTCHAR afii10022
ENCODING 181
SWIDTH 698 0
DWIDTH 14 0
BBX 12 14 1 0
BITMAP
FFE0
3070
3030
3010
3090
3080
3F80
3080
3080
3010
3010
3030
3070
FFE0
ENDCHAR

STARTCHAR afii10024
ENCODING 182
SWIDTH 1115 0
DWIDTH 21 0
BBX 20 14 1 0
BITMAP
61F860
F060F0
D060B0
086100
086100
046200
066600
0FFF00
186180
186180
3060C0
3060C0
606060
E1F870
ENDCHAR

STARTCHAR afii10025
ENCODING 183
SWIDTH 601 0
DWIDTH 11 0
BBX 9 14 1 0
BITMAP
7E00
E300
C180
8180
8180
0300
1E00
0300
0180
0180
8180
8180
4300
3E00
ENDCHAR

STARTCHAR afii10026
ENCODING 184
SWIDTH 823 0
DWIDTH 16 0
BBX 15 14 1 0
BITMAP
FC7E
3018
3038
3078
3058
30D8
3198
3318
3618
3418
3C18
3818
3018
FC7E
ENDCHAR

STARTCHAR afii10027
ENCODING 185
SWIDTH 823 0
DWIDTH 16 0
BBX 15 18 1 0
BITMAP
0C60
0C60
07C0
0000
FC7E
3018
3038
3078
3058
30D8
3198
3318
3618
3418
3C18
3818
3018
FC7E
ENDCHAR

STARTCHAR afii10028
ENCODING 186
SWIDTH 759 0
DWIDTH 14 0
BBX 13 14 1 0
BITMAP
FC30
3078
3058
3080
3080
3100
3300
3F80
30C0
30C0
3060
3060
3030
FC38
ENDCHAR

STARTCHAR afii10029
ENCODING 187
SWIDTH 789 0
DWIDTH 15 0
BBX 15 14 0 0
BITMAP
1FFE
0618
0418
0418
0418
0418
0418
0418
0818
0818
C818
C818
8818
707E
ENDCHAR

STARTCHAR afii10030
ENCODING 188
SWIDTH 979 0
DWIDTH 19 0
BBX 18 14 1 0
BITMAP
F807C0
380700
2C0B00
2C0B00
260B00
261300
261300
231300
232300
232300
21A300
21C300
20C300
F8CFC0
ENDCHAR

STARTCHAR afii10031
ENCODING 189
SWIDTH 812 0
DWIDTH 15 0
BBX 14 14 1 0
BITMAP
FCFC
3030
3030
3030
3030
3030
3FF0
3030
3030
3030
3030
3030
3030
FCFC
ENDCHAR

STARTCHAR afii10032
ENCODING 190
SWIDTH 767 0
DWIDTH 15 0
BBX 13 14 1 0
BITMAP
0F80
3060
6030
6030
C018
C018
C018
C018
C018
C018
6030
6030
3060
0F80
ENDCHAR

STARTCHAR afii10033
ENCODING 191
SWIDTH 823 0
DWIDTH 16 0
BBX 15 14 1 0
BITMAP
FFFE
3018
3018
3018
3018
3018
3018
3018
3018
3018
3018
3018
3018
FC7E
ENDCHAR

STARTCHAR afii10034
ENCODING 192
SWIDTH 662 0
DWIDTH 13 0
BBX 12 14 1 0
BITMAP
FF80
3060
3030
3030
3030
3030
3060
3F80
3000
3000
3000
3000
3000
FE00
ENDCHAR

STARTCHAR afii10035
ENCODING 193
SWIDTH 694 0
DWIDTH 14 0
BBX 11 14 2 0
BITMAP
0FC0
30E0
6060
6020
C020
C000
C000
C000
C000
C020
6020
6040
30C0
0F00
ENDCHAR

STARTCHAR afii10036
ENCODING 194
SWIDTH 688 0
DWIDTH 13 0
BBX 12 14 1 0
BITMAP
7FE0
E670
C630
8610
0600
0600
0600
0600
0600
0600
0600
0600
0600
1F80
ENDCHAR

STARTCHAR afii10037
ENCODING 195
SWIDTH 732 0
DWIDTH 14 0
BBX 14 14 0 0
BITMAP
FC7C
3018
3010
1810
1820
0C20
0C40
0640
0680
3380
7300
6100
2200
1C00
ENDCHAR

STARTCHAR afii10038
ENCODING 196
SWIDTH 799 0
DWIDTH 15 0
BBX 14 14 1 0
BITMAP
0FC0
0300
1FE0
7338
6318
C30C
C30C
C30C
C30C
6318
7338
1FE0
0300
0FC0
ENDCHAR

STARTCHAR afii10039
ENCODING 197
SWIDTH 729 0
DWIDTH 14 0
BBX 14 14 0 0
BITMAP
FCFC
7030
3020
1840
0C80
0680
0300
0300
0580
04C0
0860
1030
3038
FCFC
ENDCHAR

STARTCHAR afii10040
ENCODING 198
SWIDTH 823 0
DWIDTH 16 0
BBX 15 17 1 -3
BITMAP
FC7E
3018
3018
3018
3018
3018
3018
3018
3018
3018
3018
3018
3018
FFFE
0006
0002
0002
ENDCHAR

STARTCHAR afii10041
ENCODING 199
SWIDTH 761 0
DWIDTH 14 0
BBX 14 14 0 0
BITMAP
FCFC
3030
3030
3030
3030
3030
3030
18F0
0FB0
0030
0030
0030
0030
00FC
ENDCHAR

STARTCHAR afii10042
ENCODING 200
SWIDTH 1073 0
DWIDTH 20 0
BBX 20 14 0 0
BITMAP
FDFBF0
3060C0
3060C0
3060C0
3060C0
3060C0
3060C0
3060C0
3060C0
3060C0
3060C0
3060C0
3060C0
FFFFF0
ENDCHAR

STARTCHAR afii10043
ENCODING 201
SWIDTH 1073 0
DWIDTH 20 0
BBX 20 17 0 -3
BITMAP
FDFBF0
3060C0
3060C0
3060C0
3060C0
3060C0
3060C0
3060C0
3060C0
3060C0
3060C0
3060C0
3060C0
FFFFF0
000030
000010
000010
ENDCHAR

STARTCHAR afii10044
ENCODING 202
SWIDTH 879 0
DWIDTH 17 0
BBX 15 14 1 0
BITMAP
FF80
C600
8600
8600
8600
0600
07F0
060C
0606
0606
0606
0606
060C
1FF0
ENDCHAR

STARTCHAR afii10045
ENCODING 203
SWIDTH 1042 0
DWIDTH 20 0
BBX 19 14 1 0
BITMAP
FC07E0
300180
300180
300180
300180
300180
3F8180
306180
303180
303180
303180
303180
306180
FF87E0
ENDCHAR

STARTCHAR afii10046
ENCODING 204
SWIDTH 704 0
DWIDTH 13 0
BBX 12 14 1 0
BITMAP
FC00
3000
3000
3000
3000
3000
3F80
3060
3030
3030
3030
3030
3060
FF80
ENDCHAR

STARTCHAR afii10047
ENCODING 205
SWIDTH 698 0
DWIDTH 13 0
BBX 11 14 1 0
BITMAP
7E00
E180
C0C0
80C0
8060
0060
0FE0
0060
0060
8060
80C0
40C0
6180
1E00
ENDCHAR

STARTCHAR afii10048
ENCODING 206
SWIDTH 1104 0
DWIDTH 21 0
BBX 20 14 1 0
BITMAP
FC1F00
3060C0
30C060
30C060
318030
318030
3F8030
318030
318030
318030
30C060
30C060
3060C0
FC1F00
ENDCHAR

STARTCHAR afii10049
ENCODING 207
SWIDTH 729 0
DWIDTH 14 0
BBX 12 14 1 0
BITMAP
0FF0
30C0
60C0
60C0
60C0
60C0
30C0
0FC0
18C0
18C0
30C0
30C0
60C0
E3F0
ENDCHAR

STARTCHAR afii10065
ENCODING 208
SWIDTH 563 0
DWIDTH 11 0
BBX 10 10 1 0
BITMAP
3E00
6300
4300
0300
1F00
6300
C300
C300
C700
79C0
ENDCHAR

STARTCHAR afii10066
ENCODING 209
SWIDTH 567 0
DWIDTH 11 0
BBX 10 14 1 0
BITMAP
0180
3F00
6000
4000
9E00
F380
E180
C0C0
C0C0
C0C0
C0C0
6180
7380
1E00
ENDCHAR

STARTCHAR afii10067
ENCODING 210
SWIDTH 559 0
DWIDTH 11 0
BBX 10 10 0 0
BITMAP
FF80
31C0
30C0
3180
3F00
3180
30C0
30C0
31C0
FF80
ENDCHAR

STARTCHAR afii10068
ENCODING 211
SWIDTH 504 0
DWIDTH 10 0
BBX 9 10 1 0
BITMAP
FF80
3180
3080
3000
3000
3000
3000
3000
3000
FC00
ENDCHAR

STARTCHAR afii10069
ENCODING 212
SWIDTH 616 0
DWIDTH 12 0
BBX 12 12 0 -2
BITMAP
3FF0
0CC0
08C0
08C0
08C0
10C0
10C0
10C0
20C0
FFF0
C030
8010
ENDCHAR

STARTCHAR afii10070
ENCODING 213
SWIDTH 513 0
DWIDTH 10 0
BBX 9 10 1 0
BITMAP
1E00
7300
6180
C180
FF80
C000
C000
6080
7180
1F00
ENDCHAR

STARTCHAR afii10072
ENCODING 214
SWIDTH 844 0
DWIDTH 16 0
BBX 16 10 0 0
BITMAP
E3C7
D18B
1188
0990
0FF0
1998
318C
318C
6186
E3C7
ENDCHAR

STARTCHAR afii10073
ENCODING 215
SWIDTH 479 0
DWIDTH 9 0
BBX 7 10 1 0
BITMAP
F8
CC
86
06
1C
06
C6
C6
8C
78
ENDCHAR

STARTCHAR afii10074
ENCODING 216
SWIDTH 646 0
DWIDTH 12 0
BBX 12 10 0 0
BITMAP
F9F0
30C0
30C0
31C0
32C0
34C0
38C0
30C0
30C0
F9F0
ENDCHAR

STARTCHAR afii10075
ENCODING 217
SWIDTH 646 0
DWIDTH 12 0
BBX 12 14 0 0
BITMAP
1980
1980
0F00
0000
F9F0
30C0
30C0
31C0
32C0
34C0
38C0
30C0
30C0
F9F0
ENDCHAR

STARTCHAR afii10076
ENCODING 218
SWIDTH 602 0
DWIDTH 11 0
BBX 11 10 0 0
BITMAP
FCE0
3160
3100
3200
3E00
3300
3180
3180
30C0
FCE0
ENDCHAR

STARTCHAR afii10077
ENCODING 219
SWIDTH 639 0
DWIDTH 12 0
BBX 12 10 0 0
BITMAP
3FF0
0CC0
08C0
08C0
08C0
10C0
10C0
D0C0
D0C0
63F0
ENDCHAR

STARTCHAR afii10078
ENCODING 220
SWIDTH 784 0
DWIDTH 15 0
BBX 15 10 0 0
BITMAP
F83E
3838
2C58
2C58
2C58
2698
2698
2318
2318
FB3E
ENDCHAR

STARTCHAR afii10079
ENCODING 221
SWIDTH 646 0
DWIDTH 12 0
BBX 12 10 0 0
BITMAP
F9F0
30C0
30C0
30C0
3FC0
30C0
30C0
30C0
30C0
F9F0
ENDCHAR

STARTCHAR afii10080
ENCODING 222
SWIDTH 548 0
DWIDTH 11 0
BBX 10 10 1 0
BITMAP
1E00
7380
6180
C0C0
C0C0
C0C0
C0C0
6180
7380
1E00
ENDCHAR

STARTCHAR afii10081
ENCODING 223
SWIDTH 646 0
DWIDTH 12 0
BBX 12 10 0 0
BITMAP
FFF0
30C0
30C0
30C0
30C0
30C0
30C0
30C0
30C0
F9F0
ENDCHAR

STARTCHAR afii10082
ENCODING 224
SWIDTH 594 0
DWIDTH 11 0
BBX 11 13 0 -3
BITMAP
F700
39C0
30C0
3060
3060
3060
3060
30C0
39C0
3700
3000
3000
FC00
ENDCHAR

STARTCHAR afii10083
ENCODING 225
SWIDTH 500 0
DWIDTH 9 0
BBX 8 10 1 0
BITMAP
1E
73
61
C0
C0
C0
C0
61
73
1E
ENDCHAR

STARTCHAR afii10084
ENCODING 226
SWIDTH 552 0
DWIDTH 10 0
BBX 10 10 0 0
BITMAP
FFC0
CCC0
8C40
0C00
0C00
0C00
0C00
0C00
0C00
3F00
ENDCHAR

STARTCHAR afii10085
ENCODING 227
SWIDTH 573 0
DWIDTH 11 0
BBX 10 13 1 -3
BITMAP
F3C0
6180
6100
2100
3100
3200
1200
1A00
0C00
0C00
C800
C800
7000
ENDCHAR

STARTCHAR afii10086
ENCODING 228
SWIDTH 746 0
DWIDTH 15 0
BBX 14 17 1 -3
BITMAP
0FC0
0300
0300
0300
3B70
6798
4308
C30C
C30C
C30C
C30C
4308
6798
3B70
0300
0300
0FC0
ENDCHAR

STARTCHAR afii10087
ENCODING 229
SWIDTH 583 0
DWIDTH 11 0
BBX 10 10 1 0
BITMAP
F3C0
6180
3100
1A00
0C00
0C00
1600
2300
6180
F3C0
ENDCHAR

STARTCHAR afii10088
ENCODING 230
SWIDTH 646 0
DWIDTH 12 0
BBX 12 12 0 -2
BITMAP
F9F0
30C0
30C0
30C0
30C0
30C0
30C0
30C0
30C0
FFF0
0030
0010
ENDCHAR

STARTCHAR afii10089
ENCODING 231
SWIDTH 625 0
DWIDTH 12 0
BBX 12 10 0 0
BITMAP
F9F0
30C0
30C0
30C0
39C0
1EC0
00C0
00C0
00C0
01F0
ENDCHAR

STARTCHAR afii10090
ENCODING 232
SWIDTH 927 0
DWIDTH 18 0
BBX 18 10 0 0
BITMAP
FBF7C0
30C300
30C300
30C300
30C300
30C300
30C300
30C300
30C300
FFFFC0
ENDCHAR

STARTCHAR afii10091
ENCODING 233
SWIDTH 927 0
DWIDTH 18 0
BBX 18 12 0 -2
BITMAP
FBF7C0
30C300
30C300
30C300
30C300
30C300
30C300
30C300
30C300
FFFFC0
0000C0
000040
ENDCHAR

STARTCHAR afii10092
ENCODING 234
SWIDTH 695 0
DWIDTH 13 0
BBX 12 10 1 0
BITMAP
FE00
CC00
8C00
0C00
0FE0
0C70
0C30
0C30
0C70
1FE0
ENDCHAR

STARTCHAR afii10093
ENCODING 235
SWIDTH 833 0
DWIDTH 16 0
BBX 16 10 0 0
BITMAP
FC3F
300C
300C
300C
3F8C
31CC
30CC
30CC
31CC
FFBF
ENDCHAR

STARTCHAR afii10094
ENCODING 236
SWIDTH 565 0
DWIDTH 11 0
BBX 10 10 0 0
BITMAP
FC00
3000
3000
3000
3F80
31C0
30C0
30C0
31C0
FF80
ENDCHAR

STARTCHAR afii10095
ENCODING 237
SWIDTH 490 0
DWIDTH 9 0
BBX 8 10 1 0
BITMAP
78
CE
86
03
1F
03
03
C6
CE
78
ENDCHAR

STARTCHAR afii10096
ENCODING 238
SWIDTH 833 0
DWIDTH 16 0
BBX 16 10 0 0
BITMAP
FC78
31CE
3186
3303
3F03
3303
3303
3186
31CE
FC78
ENDCHAR

STARTCHAR afii10097
ENCODING 239
SWIDTH 577 0
DWIDTH 11 0
BBX 10 10 1 0
BITMAP
3FC0
6300
6300
6300
3300
1F00
3300
3300
6300
EFC0
ENDCHAR

STARTCHAR afii61352
ENCODING 240
SWIDTH 1053 0
DWIDTH 20 0
BBX 20 14 0 0
BITMAP
780C00
1C1E00
1C1600
161000
1611C0
131320
131630
119630
119260
10D1C0
10D000
D07000
F073E0
603000
ENDCHAR

STARTCHAR afii10071
ENCODING 241
SWIDTH 513 0
DWIDTH 10 0
BBX 9 13 1 0
BITMAP
3300
3300
0000
1E00
7300
6180
C180
FF80
C000
C000
6080
7180
1F00
ENDCHAR

STARTCHAR afii10099
ENCODING 242
SWIDTH 574 0
DWIDTH 12 0
BBX 10 18 0 -4
BITMAP
F000
3000
FF00
3000
3780
39C0
30C0
30C0
30C0
30C0
30C0
30C0
30C0
F8C0
0180
0180
0300
0600
ENDCHAR

STARTCHAR afii10100
ENCODING 243
SWIDTH 504 0
DWIDTH 10 0
BBX 9 14 1 0
BITMAP
0700
0C00
1800
0000
FF80
3180
3080
3000
3000
3000
3000
3000
3000
FC00
ENDCHAR

STARTCHAR afii10101
ENCODING 244
SWIDTH 500 0
DWIDTH 9 0
BBX 8 10 1 0
BITMAP
1E
73
61
C0
F8
C0
C0
61
73
1E
ENDCHAR

STARTCHAR afii10102
ENCODING 245
SWIDTH 458 0
DWIDTH 9 0
BBX 7 10 1 0
BITMAP
7C
C6
C2
E0
78
3C
0E
86
C6
7C
ENDCHAR

STARTCHAR afii10103
ENCODING 246
SWIDTH 354 0
DWIDTH 7 0
BBX 6 14 1 0
BITMAP
30
30
00
00
F0
30
30
30
30
30
30
30
30
FC
ENDCHAR

STARTCHAR afii10104
ENCODING 247
SWIDTH 354 0
DWIDTH 7 0
BBX 6 14 1 0
BITMAP
CC
CC
00
00
F0
30
30
30
30
30
30
30
30
FC
ENDCHAR

STARTCHAR afii10105
ENCODING 248
SWIDTH 323 0
DWIDTH 6 0
BBX 5 17 0 -3
BITMAP
18
18
00
00
78
18
18
18
18
18
18
18
18
18
D8
D0
60
ENDCHAR

STARTCHAR afii10106
ENCODING 249
SWIDTH 887 0
DWIDTH 17 0
BBX 16 10 1 0
BITMAP
3FF0
0CC0
08C0
08C0
08FE
10C7
10C3
D0C3
D0C7
61FE
ENDCHAR

STARTCHAR afii10107
ENCODING 250
SWIDTH 888 0
DWIDTH 17 0
BBX 16 10 0 0
BITMAP
F9F0
30C0
30C0
30C0
3FFE
30C7
30C3
30C3
30C7
F9FE
ENDCHAR

STARTCHAR afii10108
ENCODING 251
SWIDTH 635 0
DWIDTH 12 0
BBX 12 14 0 0
BITMAP
F000
3000
7F00
3000
3780
39C0
30C0
30C0
30C0
30C0
30C0
30C0
30C0
F9F0
ENDCHAR

STARTCHAR afii10109
ENCODING 252
SWIDTH 602 0
DWIDTH 11 0
BBX 11 14 0 0
BITMAP
01C0
0300
0600
0000
FCE0
3160
3100
3200
3E00
3300
3180
3180
30C0
FCE0
ENDCHAR

STARTCHAR section
ENCODING 253
SWIDTH 490 0
DWIDTH 9 0
BBX 7 18 1 -3
BITMAP
7C
C6
C6
C0
60
78
DC
8E
86
C2
E2
76
3C
0C
06
C6
C6
7C
ENDCHAR

STARTCHAR afii10110
ENCODING 254
SWIDTH 573 0
DWIDTH 11 0
BBX 10 17 1 -3
BITMAP
3300
3300
1E00
0000
F3C0
6180
6100
2100
3100
3200
1200
1A00
0C00
0C00
C800
C800
7000
ENDCHAR

STARTCHAR afii10193
ENCODING 255
SWIDTH 646 0
DWIDTH 12 0
BBX 12 12 0 -2
BITMAP
F9F0
30C0
30C0
30C0
30C0
30C0
30C0
30C0
30C0
FFF0
0600
0200
ENDCHAR
ENDFONT
